<svg width="337" height="106" viewBox="0 0 337 106" fill="none" xmlns="http://www.w3.org/2000/svg">
<path d="M323.157 91.4759C323.157 92.7684 322.923 93.8853 322.457 94.8268C321.99 95.7682 321.35 96.4942 320.536 97.0048C319.722 97.5154 318.793 97.7707 317.748 97.7707C316.702 97.7707 315.773 97.5154 314.959 97.0048C314.145 96.4942 313.505 95.7682 313.038 94.8268C312.572 93.8853 312.338 92.7684 312.338 91.4759C312.338 90.1834 312.572 89.0665 313.038 88.1251C313.505 87.1836 314.145 86.4576 314.959 85.947C315.773 85.4364 316.702 85.1811 317.748 85.1811C318.793 85.1811 319.722 85.4364 320.536 85.947C321.35 86.4576 321.99 87.1836 322.457 88.1251C322.923 89.0665 323.157 90.1834 323.157 91.4759ZM321.721 91.4759C321.721 90.4148 321.543 89.5193 321.188 88.7893C320.837 88.0592 320.36 87.5067 319.758 87.1318C319.16 86.7568 318.489 86.5693 317.748 86.5693C317.006 86.5693 316.333 86.7568 315.731 87.1318C315.133 87.5067 314.656 88.0592 314.301 88.7893C313.95 89.5193 313.774 90.4148 313.774 91.4759C313.774 92.537 313.95 93.4326 314.301 94.1626C314.656 94.8926 315.133 95.4451 315.731 95.8201C316.333 96.195 317.006 96.3825 317.748 96.3825C318.489 96.3825 319.16 96.195 319.758 95.8201C320.36 95.4451 320.837 94.8926 321.188 94.1626C321.543 93.4326 321.721 92.537 321.721 91.4759Z" fill="#302F2C"/>
<path d="M294.677 85.3486V97.6032H293.193V85.3486H294.677Z" fill="#302F2C"/>
<path d="M269.698 97.6032H265.917V85.3486H269.866C271.055 85.3486 272.072 85.594 272.918 86.0846C273.763 86.5713 274.412 87.2714 274.862 88.1849C275.313 89.0944 275.538 90.1834 275.538 91.452C275.538 92.7285 275.311 93.8275 274.856 94.749C274.402 95.6665 273.739 96.3726 272.87 96.8672C272 97.3579 270.943 97.6032 269.698 97.6032ZM267.401 96.2868H269.603C270.616 96.2868 271.456 96.0913 272.122 95.7004C272.788 95.3094 273.285 94.753 273.612 94.0309C273.939 93.3089 274.102 92.4493 274.102 91.452C274.102 90.4627 273.941 89.611 273.618 88.897C273.295 88.1789 272.812 87.6284 272.17 87.2455C271.527 86.8585 270.728 86.6651 269.77 86.6651H267.401V96.2868Z" fill="#302F2C"/>
<path d="M246.304 85.3486H247.788V93.4625C247.788 94.3002 247.591 95.0482 247.196 95.7064C246.805 96.3606 246.252 96.8772 245.538 97.2561C244.824 97.6311 243.987 97.8186 243.025 97.8186C242.064 97.8186 241.226 97.6311 240.512 97.2561C239.798 96.8772 239.244 96.3606 238.849 95.7064C238.458 95.0482 238.262 94.3002 238.262 93.4625V85.3486H239.746V93.3428C239.746 93.9412 239.878 94.4737 240.141 94.9405C240.404 95.4032 240.779 95.7682 241.266 96.0355C241.757 96.2988 242.343 96.4304 243.025 96.4304C243.707 96.4304 244.294 96.2988 244.784 96.0355C245.275 95.7682 245.65 95.4032 245.909 94.9405C246.173 94.4737 246.304 93.9412 246.304 93.3428V85.3486Z" fill="#302F2C"/>
<path d="M211.616 86.6651V85.3486H220.807V86.6651H216.954V97.6032H215.47V86.6651H211.616Z" fill="#302F2C"/>
<path d="M193.078 88.4123C193.006 87.8059 192.715 87.3352 192.204 87.0001C191.694 86.665 191.067 86.4975 190.325 86.4975C189.783 86.4975 189.308 86.5853 188.901 86.7608C188.498 86.9363 188.183 87.1776 187.956 87.4848C187.732 87.792 187.621 88.141 187.621 88.532C187.621 88.8591 187.699 89.1403 187.854 89.3756C188.014 89.607 188.217 89.8005 188.464 89.9561C188.712 90.1077 188.971 90.2333 189.242 90.333C189.514 90.4288 189.763 90.5066 189.99 90.5664L191.235 90.9015C191.554 90.9853 191.909 91.1009 192.3 91.2485C192.695 91.3961 193.072 91.5976 193.431 91.8529C193.794 92.1042 194.093 92.4273 194.328 92.8222C194.564 93.2172 194.681 93.7018 194.681 94.2763C194.681 94.9385 194.508 95.5368 194.161 96.0714C193.818 96.6059 193.315 97.0307 192.653 97.3459C191.995 97.661 191.195 97.8186 190.254 97.8186C189.376 97.8186 188.616 97.677 187.974 97.3938C187.336 97.1105 186.833 96.7156 186.466 96.209C186.103 95.7024 185.897 95.114 185.85 94.4438H187.381C187.421 94.9066 187.577 95.2895 187.848 95.5927C188.123 95.8919 188.47 96.1152 188.889 96.2628C189.312 96.4065 189.767 96.4783 190.254 96.4783C190.82 96.4783 191.329 96.3865 191.779 96.203C192.23 96.0155 192.587 95.7562 192.85 95.4251C193.114 95.0901 193.245 94.6991 193.245 94.2523C193.245 93.8454 193.132 93.5143 192.904 93.259C192.677 93.0037 192.378 92.7963 192.007 92.6367C191.636 92.4772 191.235 92.3376 190.804 92.2179L189.296 91.7871C188.339 91.5118 187.581 91.1189 187.022 90.6083C186.464 90.0977 186.185 89.4295 186.185 88.6037C186.185 87.9176 186.37 87.3193 186.741 86.8087C187.116 86.2941 187.619 85.8952 188.249 85.6119C188.883 85.3247 189.591 85.1811 190.373 85.1811C191.163 85.1811 191.865 85.3227 192.479 85.6059C193.094 85.8852 193.58 86.2681 193.939 86.7548C194.303 87.2415 194.494 87.794 194.514 88.4123H193.078Z" fill="#302F2Ck"/>
<path d="M148.338 85.3486V97.6032H146.902L140.224 87.9815H140.104V97.6032H138.62V85.3486H140.056L146.758 94.9943H146.878V85.3486H148.338Z" fill="#302F2C"/>
<path d="M119.31 89.1782C119.178 88.7753 119.005 88.4143 118.789 88.0951C118.578 87.772 118.325 87.4968 118.03 87.2694C117.738 87.042 117.407 86.8685 117.036 86.7488C116.665 86.6292 116.258 86.5693 115.816 86.5693C115.09 86.5693 114.429 86.7568 113.835 87.1318C113.241 87.5067 112.768 88.0592 112.417 88.7893C112.066 89.5193 111.89 90.4148 111.89 91.4759C111.89 92.537 112.068 93.4326 112.423 94.1626C112.778 94.8926 113.259 95.4451 113.865 95.8201C114.471 96.195 115.153 96.3825 115.911 96.3825C116.613 96.3825 117.232 96.2329 117.766 95.9337C118.305 95.6306 118.724 95.2037 119.023 94.6532C119.326 94.0988 119.478 93.4465 119.478 92.6966L119.932 92.7923H116.246V91.4759H120.914V92.7923C120.914 93.8016 120.698 94.6792 120.267 95.4251C119.841 96.1711 119.25 96.7495 118.496 97.1604C117.746 97.5673 116.885 97.7707 115.911 97.7707C114.826 97.7707 113.873 97.5154 113.051 97.0048C112.233 96.4942 111.595 95.7682 111.136 94.8268C110.682 93.8853 110.454 92.7684 110.454 91.4759C110.454 90.5066 110.584 89.6349 110.843 88.8611C111.106 88.0832 111.477 87.421 111.956 86.8745C112.435 86.328 113.001 85.9091 113.655 85.6179C114.31 85.3267 115.03 85.1811 115.816 85.1811C116.462 85.1811 117.064 85.2788 117.623 85.4743C118.185 85.6658 118.686 85.939 119.125 86.2941C119.567 86.6451 119.936 87.0659 120.232 87.5566C120.527 88.0433 120.73 88.5838 120.842 89.1782H119.31Z" fill="#302F2C"/>
<path d="M92.7925 85.3486V97.6032H91.3086V85.3486H92.7925Z" fill="#302F2C"/>
<path d="M72.1001 88.4123C72.0283 87.8059 71.7371 87.3352 71.2265 87.0001C70.7159 86.665 70.0896 86.4975 69.3476 86.4975C68.8051 86.4975 68.3304 86.5853 67.9235 86.7608C67.5206 86.9363 67.2055 87.1776 66.9781 87.4848C66.7547 87.792 66.643 88.141 66.643 88.532C66.643 88.8591 66.7208 89.1403 66.8764 89.3756C67.0359 89.607 67.2394 89.8005 67.4867 89.9561C67.734 90.1077 67.9933 90.2333 68.2646 90.333C68.5358 90.4288 68.7852 90.5066 69.0125 90.5664L70.2572 90.9015C70.5763 90.9853 70.9313 91.1009 71.3222 91.2485C71.7172 91.3961 72.0941 91.5976 72.4531 91.8529C72.8162 92.1042 73.1153 92.4273 73.3507 92.8222C73.5861 93.2172 73.7037 93.7018 73.7037 94.2763C73.7037 94.9385 73.5302 95.5368 73.1832 96.0714C72.8401 96.6059 72.3375 97.0307 71.6753 97.3459C71.0171 97.661 70.2173 97.8186 69.2758 97.8186C68.3982 97.8186 67.6383 97.677 66.9961 97.3938C66.3578 97.1105 65.8552 96.7156 65.4882 96.209C65.1252 95.7024 64.9197 95.114 64.8719 94.4438H66.4037C66.4436 94.9066 66.5991 95.2895 66.8704 95.5927C67.1456 95.8919 67.4927 96.1152 67.9115 96.2628C68.3344 96.4065 68.7892 96.4783 69.2758 96.4783C69.8423 96.4783 70.3509 96.3865 70.8017 96.203C71.2524 96.0155 71.6094 95.7562 71.8727 95.4251C72.136 95.0901 72.2677 94.6991 72.2677 94.2523C72.2677 93.8454 72.154 93.5143 71.9266 93.259C71.6992 93.0037 71.4 92.7963 71.029 92.6367C70.6581 92.4772 70.2572 92.3376 69.8263 92.2179L68.3184 91.7871C67.3611 91.5118 66.6031 91.1189 66.0447 90.6083C65.4862 90.0977 65.2069 89.4295 65.2069 88.6037C65.2069 87.9176 65.3924 87.3193 65.7634 86.8087C66.1384 86.2941 66.641 85.8952 67.2713 85.6119C67.9056 85.3247 68.6136 85.1811 69.3955 85.1811C70.1853 85.1811 70.8874 85.3227 71.5018 85.6059C72.1161 85.8852 72.6028 86.2681 72.9618 86.7548C73.3248 87.2415 73.5163 87.794 73.5362 88.4123H72.1001Z" fill="#302F2C"/>
<path d="M40.1629 97.6032V85.3486H47.5587V86.6651H41.6469V90.8058H47.1758V92.1222H41.6469V96.2868H47.6545V97.6032H40.1629Z" fill="#302F2C"/>
<path d="M16.6686 97.6032H12.887V85.3486H16.8362C18.0249 85.3486 19.0422 85.594 19.8879 86.0846C20.7335 86.5713 21.3818 87.2714 21.8325 88.1849C22.2833 89.0944 22.5087 90.1834 22.5087 91.452C22.5087 92.7285 22.2813 93.8275 21.8266 94.749C21.3718 95.6665 20.7096 96.3726 19.84 96.8672C18.9704 97.3579 17.9132 97.6032 16.6686 97.6032ZM14.3709 96.2868H16.5729C17.5861 96.2868 18.4258 96.0913 19.092 95.7004C19.7582 95.3094 20.2549 94.753 20.582 94.0309C20.9091 93.3089 21.0726 92.4493 21.0726 91.452C21.0726 90.4627 20.9111 89.611 20.5879 88.897C20.2648 88.1789 19.7821 87.6284 19.1399 87.2455C18.4977 86.8585 17.6978 86.6651 16.7404 86.6651H14.3709V96.2868Z" fill="#302F2C"/>
<path d="M337 103.795V105.144H0V103.795H337ZM337 76.8351V78.1845H0V76.8351H337Z" fill="#302F2C"/>
<path d="M112.387 2.56862C107.519 0.856206 101.603 0 94.6371 0H50.5077L62.3031 12.5774H93.3782C97.3227 12.5774 100.26 13.2565 102.19 14.6146C104.204 15.9727 105.211 17.8328 105.211 20.1947C105.211 22.6748 104.204 24.5938 102.19 25.952C101.227 26.6297 100.013 27.1384 98.5478 27.4779C97.0774 27.8187 95.3542 27.9891 93.3782 27.9891H76.7724L108.88 62.1906H122.384L130.99 62.1784L107.887 37.4673C114.146 36.0987 118.877 33.8251 122.08 30.6463C125.058 27.7656 126.715 24.5365 127.051 20.9589V18.1359C126.771 15.0422 125.576 12.2151 123.465 9.65449C121.031 6.643 117.338 4.28103 112.387 2.56862Z" fill="#302F2C"/>
<path d="M136.407 0.0121506L136.407 62.1784L157.933 62.1906V23.8383L193.937 62.1906L216.047 62.1906L157.933 0.0121598L136.407 0.0121506Z" fill="#302F2C"/>
<path fill-rule="evenodd" clip-rule="evenodd" d="M78.3182 38.729L42.4269 0.498311C39.4635 0.182205 36.3572 0.0241538 33.1079 0.0241538L0 0.0121506V28.5702L31.4372 62.2025H33.1079C35.3136 62.2025 37.4546 62.1284 39.531 61.98C46.1448 61.5076 52.1023 60.2827 57.4037 58.3053C64.4533 55.7071 69.8664 52.0461 73.6429 47.3222C75.8091 44.6716 77.3675 41.8072 78.3182 38.729ZM21.5264 12.9558H31.7231C39.8637 12.9558 46.1999 14.5502 50.7318 17.7388C55.2637 20.9274 57.5296 25.3856 57.5296 31.1133C57.5296 36.8411 55.2637 41.2697 50.7318 44.3993C46.1999 47.5289 39.8637 49.0937 31.7231 49.0937H21.5264V12.9558Z" fill="#302F2C"/>
<path fill-rule="evenodd" clip-rule="evenodd" d="M271.469 38.729L235.578 0.498311C232.614 0.182205 229.508 0.0241538 226.259 0.0241538L193.151 0.0121506V28.5702L224.588 62.2025H226.259C228.465 62.2025 230.606 62.1284 232.682 61.98C239.296 61.5076 245.253 60.2827 250.555 58.3053C257.604 55.7071 263.017 52.0461 266.794 47.3222C268.96 44.6716 270.518 41.8072 271.469 38.729ZM214.677 12.9558H224.874C233.015 12.9558 239.351 14.5502 243.883 17.7388C248.415 20.9274 250.681 25.3856 250.681 31.1133C250.681 36.8411 248.415 41.2697 243.883 44.3993C239.351 47.5289 233.015 49.0937 224.874 49.0937H214.677V12.9558Z" fill="#302F2C"/>
<path d="M324.519 18.6617V24.882H316.718L312.038 20.2168V46.6528H299.557V24.882L287.075 24.882V18.6617H324.519Z" fill="#302F2C"/>
<path d="M335.749 31.1001C335.749 14.6171 322.342 1.24729 305.795 1.24729C289.248 1.24796 275.84 14.6175 275.84 31.1001C275.84 47.5833 289.247 60.9522 305.795 60.9529V62.2035L304.189 62.1607C287.702 61.3269 274.592 47.7395 274.592 31.1001C274.593 13.9243 288.562 0.000661309 305.795 0C323.027 0 336.999 13.9239 337 31.1001L336.957 32.7028C336.121 49.1352 322.489 62.2035 305.795 62.2035V60.9529C322.342 60.9529 335.749 47.5837 335.749 31.1001Z" fill="#302F2C"/>
</svg>
